<?xml version="1.0" encoding="UTF-8" standalone="no"?>
<!DOCTYPE svg PUBLIC "-//W3C//DTD SVG 20010904//EN"
              "http://www.w3.org/TR/2001/REC-SVG-20010904/DTD/svg10.dtd">

<svg xmlns="http://www.w3.org/2000/svg"
     width="0.32in" height="0.32in"
     viewBox="0 0 96 96">
  <path id="Selection"
        fill="none" stroke="black" stroke-width="1"
        d="M 3.00,29.00
           C 3.00,29.00 6.00,48.00 6.00,48.00
             6.00,48.00 6.00,91.00 6.00,91.00
             6.00,91.00 89.00,91.00 89.00,91.00
             89.00,91.00 89.00,41.00 89.00,41.00
             89.00,41.00 11.00,41.00 11.00,41.00
             11.00,41.00 41.00,32.29 41.00,32.29
             41.00,32.29 85.00,20.00 85.00,20.00
             85.00,20.00 82.00,8.00 82.00,8.00
             82.00,8.00 61.00,13.14 61.00,13.14
             61.00,13.14 3.00,29.00 3.00,29.00 Z" />
</svg>
